<svg width="161" height="36" viewBox="0 0 161 36" fill="none" xmlns="http://www.w3.org/2000/svg">
<path d="M21.9757 12.293L21.8859 12.0892H21.6631H13.5309H13.3046L13.2164 12.2977L11.6645 15.9661H10.0225L16.8974 0.341588H18.6367L25.3806 15.9661H23.5943L21.9757 12.293ZM13.9677 10.514L13.7688 10.9877H14.2827H20.9114H21.4294L21.2254 10.5116L17.8769 2.69625L17.5596 1.95586L17.2479 2.69858L13.9677 10.514Z" fill="#242424" stroke="#242424" stroke-width="0.683177"/>
<path d="M1.98189 7.63077V7.97236H2.32348H5.46702H5.46704H5.46708H5.46712H5.46718H5.46724H5.46732H5.46742H5.46752H5.46764H5.46777H5.46791H5.46806H5.46823H5.46841H5.4686H5.4688H5.46901H5.46924H5.46948H5.46973H5.46999H5.47026H5.47055H5.47084H5.47115H5.47147H5.4718H5.47214H5.4725H5.47286H5.47324H5.47363H5.47403H5.47444H5.47487H5.4753H5.47575H5.4762H5.47667H5.47715H5.47764H5.47814H5.47865H5.47918H5.47971H5.48026H5.48081H5.48138H5.48196H5.48255H5.48315H5.48376H5.48438H5.48501H5.48566H5.48631H5.48697H5.48765H5.48833H5.48903H5.48973H5.49045H5.49118H5.49191H5.49266H5.49342H5.49419H5.49497H5.49575H5.49655H5.49736H5.49818H5.49901H5.49985H5.5007H5.50156H5.50243H5.5033H5.50419H5.50509H5.506H5.50692H5.50785H5.50878H5.50973H5.51069H5.51165H5.51263H5.51361H5.51461H5.51561H5.51663H5.51765H5.51868H5.51972H5.52077H5.52184H5.5229H5.52398H5.52507H5.52617H5.52727H5.52839H5.52951H5.53065H5.53179H5.53294H5.5341H5.53527H5.53645H5.53763H5.53883H5.54003H5.54124H5.54246H5.54369H5.54493H5.54618H5.54743H5.5487H5.54997H5.55125H5.55254H5.55384H5.55514H5.55646H5.55778H5.55911H5.56045H5.5618H5.56315H5.56451H5.56589H5.56726H5.56865H5.57005H5.57145H5.57286H5.57428H5.5757H5.57714H5.57858H5.58003H5.58149H5.58295H5.58442H5.58591H5.58739H5.58889H5.59039H5.5919H5.59342H5.59494H5.59648H5.59801H5.59956H5.60112H5.60268H5.60425H5.60582H5.6074H5.60899H5.61059H5.61219H5.6138H5.61542H5.61705H5.61868H5.62032H5.62196H5.62361H5.62527H5.62694H5.62861H5.63029H5.63197H5.63366H5.63536H5.63707H5.63878H5.6405H5.64222H5.64395H5.64569H5.64743H5.64918H5.65093H5.6527H5.65446H5.65624H5.65802H5.6598H5.6616H5.66339H5.6652H5.66701H5.66882H5.67065H5.67247H5.67431H5.67615H5.67799H5.67984H5.6817H5.68356H5.68543H5.6873H5.68918H5.69106H5.69295H5.69485H5.69675H5.69865H5.70056H5.70248H5.7044H5.70633H5.70826H5.7102H5.71214H5.71409H5.71604H5.718H5.71996H5.72193H5.7239H5.72588H5.72786H5.72984H5.73184H5.73383H5.73583H5.73784H5.73985H5.74186H5.74388H5.74591H5.74794H5.74997H5.75201H5.75405H5.7561H5.75815H5.7602H5.76226H5.76432H5.76639H5.76846H5.77054H5.77262H5.7747H5.77679H5.77888H5.78098H5.78308H5.78519H5.78729H5.78941H5.79152H5.79364H5.79576H5.79789H5.80002H5.80216H5.80429H5.80643H5.80858H5.81073H5.81288H5.81503H5.81719H5.81936H5.82152H5.82369H5.82586H5.82804H5.83022H5.8324H5.83458H5.83677H5.83896H5.84116H5.84335H5.84555H5.84776H5.84996H5.85217H5.85438H5.8566H5.85881H5.86103H5.86326H5.86548H5.86771H5.86994H5.87217H5.87441H5.87665H5.87889H5.88113H5.88337H5.88562H5.88787H5.89012H5.89238H5.89464H5.89689H5.89916H5.90142H5.90368H5.90595H5.90822H5.91049H5.91277H5.91504H5.91732H5.9196H5.92188H5.92416H5.92645H5.92873H5.93102H5.93331H5.9356H5.93789H5.94019H5.94248H5.94478H5.94708H5.94938H5.95168H5.95398H5.95629H5.95859H5.9609H5.96321H5.96552H5.96783H5.97014H5.97245H5.97477H5.97708H5.9794H5.98171H5.98403H5.98635H5.98867H5.99099H5.99331H5.99563H5.99795H6.00028H6.0026H6.00493H6.00725H6.00958H6.0119H6.01423H6.01656H6.01888H6.02121H6.02354H6.02587H6.0282H6.03052H6.03285H6.03518H6.03751H6.03984H6.04217H6.0445H6.04683H6.04916H6.05149H6.05382H6.05615H6.05848H6.06081H6.06314H6.06546H6.06779H6.07012H6.07245H6.07478H6.0771H6.07943H6.08176H6.08408H6.08641H6.08873H6.09105H6.09338H6.0957H6.09802H6.10034H6.10266H6.10498H6.1073H6.10961H6.11193H6.11425H6.11656H6.11887H6.12119H6.1235H6.12581H6.12812H6.13042H6.13273H6.13504H6.13734H6.13964H6.14194H6.14424H6.14654H6.14884H6.15113H6.15343H6.15572H6.15801H6.1603H6.16259H6.16487H6.16716H6.16944H6.17172H6.174H6.17628H6.17855H6.18082H6.18309H6.18536H6.18763H6.1899H6.19216H6.19442H6.19668H6.19893H6.20119H6.20344H6.20569H6.20794H6.21018H6.21242H6.21466H6.2169H6.21913H6.22137H6.2236H6.22582H6.22805H6.23027H6.23249H6.23471H6.23692H6.23913H6.24134H6.24354H6.24574H6.24794H6.25014H6.25233H6.25452H6.25671H6.25889H6.26108H6.26325H6.26543H6.2676H6.26977H6.27193H6.27409H6.27625H6.2784H6.28056H6.2827H6.28485H6.28699H6.28912H6.29126H6.29339H6.29551H6.29764H6.29975H6.30187H6.30398H6.30609H6.30819H6.31029H6.31238H6.31447H6.31656H6.31865H6.32072H6.3228H6.32487H6.32694H6.329H6.33106H6.33311H6.33516H6.3372H6.33925H6.34128H6.34331H6.34534H6.34736H6.34938H6.3514H6.35341H6.35541C7.35262 7.97236 8.13087 7.78003 8.76348 7.21425C9.48491 6.63143 9.7722 5.65264 9.7722 4.73846C9.7722 3.8025 9.47345 2.91008 8.78382 2.22007C8.41003 1.84606 7.89252 1.65769 7.47568 1.55977C7.05232 1.46032 6.68378 1.44303 6.56042 1.44303H6.55922H6.55802H6.55683H6.55563H6.55444H6.55324H6.55205H6.55086H6.54968H6.54849H6.5473H6.54612H6.54494H6.54376H6.54258H6.54141H6.54023H6.53906H6.53789H6.53672H6.53555H6.53438H6.53321H6.53205H6.53089H6.52973H6.52857H6.52741H6.52626H6.5251H6.52395H6.5228H6.52165H6.5205H6.51936H6.51822H6.51707H6.51593H6.51479H6.51366H6.51252H6.51139H6.51026H6.50913H6.508H6.50687H6.50574H6.50462H6.5035H6.50238H6.50126H6.50014H6.49903H6.49792H6.4968H6.4957H6.49459H6.49348H6.49238H6.49127H6.49017H6.48907H6.48798H6.48688H6.48579H6.48469H6.4836H6.48251H6.48143H6.48034H6.47926H6.47818H6.4771H6.47602H6.47494H6.47387H6.4728H6.47173H6.47066H6.46959H6.46852H6.46746H6.4664H6.46534H6.46428H6.46322H6.46217H6.46112H6.46007H6.45902H6.45797H6.45692H6.45588H6.45484H6.4538H6.45276H6.45173H6.45069H6.44966H6.44863H6.4476H6.44657H6.44555H6.44452H6.4435H6.44248H6.44147H6.44045H6.43944H6.43843H6.43742H6.43641H6.4354H6.4344H6.4334H6.4324H6.4314H6.4304H6.42941H6.42841H6.42742H6.42644H6.42545H6.42446H6.42348H6.4225H6.42152H6.42054H6.41957H6.4186H6.41762H6.41666H6.41569H6.41472H6.41376H6.4128H6.41184H6.41088H6.40993H6.40897H6.40802H6.40707H6.40613H6.40518H6.40424H6.4033H6.40236H6.40142H6.40048H6.39955H6.39862H6.39769H6.39676H6.39584H6.39491H6.39399H6.39307H6.39216H6.39124H6.39033H6.38942H6.38851H6.3876H6.3867H6.3858H6.3849H6.384H6.3831H6.38221H6.38131H6.38042H6.37954H6.37865H6.37777H6.37688H6.376H6.37513H6.37425H6.37338H6.37251H6.37164H6.37077H6.36991H6.36904H6.36818H6.36732H6.36647H6.36561H6.36476H6.36391H6.36306H6.36222H6.36137H6.36053H6.35969H6.35886H6.35802H6.35719H6.35636H6.35553H6.3547H6.35388H6.35306H6.35224H6.35142H6.3506H6.34979H6.34898H6.34817H6.34736H6.34656H6.34576H6.34496H6.34416H6.34337H6.34257H6.34178H6.34099H6.34021H6.33942H6.33864H6.33786H6.33708H6.33631H6.33553H6.33476H6.33399H6.33323H6.33246H6.3317H6.33094H6.33018H6.32943H6.32868H6.32793H6.32718H6.32643H6.32569H6.32495H6.32421H6.32347H6.32274H6.32201H6.32128H6.32055H6.31982H6.3191H6.31838H6.31766H6.31695H6.31623H6.31552H6.31481H6.31411H6.3134H6.3127H6.312H6.3113H6.31061H6.30991H6.30922H6.30854H6.30785H6.30717H6.30649H6.30581H6.30513H6.30446H6.30379H6.30312H6.30245H6.30179H6.30113H6.30047H6.29981H6.29916H6.29851H6.29786H6.29721H6.29656H6.29592H6.29528H6.29464H6.29401H6.29338H6.29275H6.29212H6.29149H6.29087H6.29025H6.28963H6.28902H6.2884H6.28779H6.28718H6.28658H6.28598H6.28538H6.28478H6.28418H6.28359H6.283H6.28241H6.28182H6.28124H6.28066H6.28008H6.2795H6.27893H6.27836H6.27779H6.27723H6.27666H6.2761H6.27554H6.27499H6.27444H6.27388H6.27334H6.27279H6.27225H6.27171H6.27117H6.27063H6.2701H6.26957H6.26904H6.26852H6.268H6.26748H6.26696H6.26644H6.26593H6.26542H6.26491H6.26441H6.26391H6.26341H6.26291H6.26242H6.26193H6.26144H6.26095H6.26047H6.25998H6.25951H6.25903H6.25856H6.25809H6.25762H6.25715H6.25669H6.25623H6.25577H6.25532H6.25487H6.25442H6.25397H6.25353H6.25308H6.25265H6.25221H6.25178H6.25134H6.25092H6.25049H6.25007H6.24965H6.24923H6.24882H6.2484H6.24799H6.24759H6.24718H6.24678H6.24638H6.24599H6.24559H6.2452H6.24482H6.24443H6.24405H6.24367H6.24329H6.24292H6.24255H6.24218H6.24181H6.24145H6.24109H6.24073H6.24038H6.24003H6.23968H6.23933H6.23899H6.23865H6.23831H6.23797H6.23764H6.23731H6.23698H6.23666H6.23634H6.23602H6.2357H6.23539H6.23508H6.23477H6.23447H6.23417H6.23387H6.23357H6.23328H6.23299H6.2327H6.23241H6.23213H6.23185H6.23158H6.2313H6.23103H6.23076H6.2305H6.23024H6.22998H6.22972H6.22947H6.22922H6.22897H6.22873H6.22848H6.22825H6.22801H6.22778H6.22755H6.22732H6.22709H6.22687H6.22665H6.22644H6.22622H6.22601H6.22581H6.2256H6.2254H6.2252H6.22501H6.22482H6.22463H6.22444H6.22426H6.22407H6.2239H6.22372H6.22355H6.22338H6.22322H6.22305H6.22289H6.22274H6.22258H6.22243H6.22228H6.22214H6.22199H6.22186H6.22172H6.22159H6.22146H6.22133H6.2212H6.22108H6.22096H6.22085H6.22074H6.22063H6.22052H6.22042H6.22032H6.22022H6.22013H6.22004H6.21995H6.21986H6.21978H6.2197H6.21963H6.21956H6.21949H6.21942H6.21936H6.2193H6.21924H6.21918H6.21913H6.21908H6.21904H6.219H6.21896H6.21892H6.21889H6.21886H6.21883H6.21881H6.21879H6.21877H6.21876H6.21875H6.21874H6.21874H2.32348V1.72308H1.98189V1.78462V2.1262V7.63077ZM1.98189 9.35385V15.9661H0.341588V0.341588H6.21873C7.15417 0.341588 8.70222 0.525824 9.77384 1.32053L9.77378 1.32061L9.78053 1.32537C11.2273 2.34494 11.4808 3.75358 11.4808 4.67693C11.4808 5.61247 11.2197 6.84645 10.2353 7.67745L10.2353 7.67744L10.2333 7.67917C8.89466 8.82722 7.56537 9.01226 5.46702 9.01226H2.32348H1.98189V9.35385Z" fill="#242424" stroke="#242424" stroke-width="0.683177"/>
<path d="M84.8754 8.8V15.9661H83.2351V0.341588H84.8754V7.01539V7.35697H85.217H93.3492H93.6908V7.01539V0.341588H95.2628V15.9661H93.6908V8.8V8.45841H93.3492H85.217H84.8754V8.8Z" fill="#242424" stroke="#242424" stroke-width="0.683177"/>
<path d="M99.4314 0.341588H101.072V15.9661H99.4314V0.341588Z" fill="#242424" stroke="#242424" stroke-width="0.683177"/>
<path d="M107.085 14.8647H114.602V15.9661H105.103V0.341588H106.744V14.5231V14.8647H107.085Z" fill="#242424" stroke="#242424" stroke-width="0.683177"/>
<path d="M28.0866 1.44303H22.8929V0.341588H35.5355V1.44303H30.3418H30.0002V1.78462V15.9661H28.4282V1.78462V1.44303H28.0866Z" fill="#242424" stroke="#242424" stroke-width="0.683177"/>
<path d="M39.636 7.2339H45.7181V8.39688H39.636H39.2944V8.73846V14.5231V14.8647H39.636H46.1479L46.8649 15.9661H37.6541V0.341588H47.0015L46.2845 1.44303H39.636H39.2944V1.78462V6.89231V7.2339H39.636Z" fill="#242424" stroke="#242424" stroke-width="0.683177"/>
<path d="M51.3901 7.63077V8.44351L51.9707 7.8748L59.6616 0.341588H61.5578L56.2075 5.60259L56.0184 5.78855L56.1517 6.01784L61.9354 15.9661H60.1319L55.1729 7.15553L54.9568 6.77153L54.6388 7.07657L51.4952 10.092L51.3901 10.1928V10.3385V15.9661H49.8182V0.341588H51.3901V7.63077Z" fill="#242424" stroke="#242424" stroke-width="0.683177"/>
<path d="M83.9187 34.5844V34.9259H84.2602H88.4422L88.7767 35.4735H83.0301V25.3875H90.1773L93.5777 34.0933L93.8928 34.9L94.2132 34.0954L97.6811 25.3875H98.5078L94.2836 35.4735H93.3068L89.5659 26.1495L89.4799 25.9351H89.2489H84.2602H83.9187V26.2767V29.5997V29.9413H84.2602H88.0873V30.4889H84.2602H83.9187V30.8305V34.5844Z" fill="#242424" stroke="#242424" stroke-width="0.683177"/>
<path d="M71.2763 7.63077V7.97236H71.6179H74.8298H74.8298H74.8298H74.8299H74.8299H74.83H74.8301H74.8302H74.8303H74.8304H74.8305H74.8307H74.8308H74.831H74.8312H74.8314H74.8316H74.8318H74.832H74.8322H74.8325H74.8328H74.833H74.8333H74.8336H74.8339H74.8342H74.8346H74.8349H74.8353H74.8356H74.836H74.8364H74.8368H74.8372H74.8376H74.8381H74.8385H74.839H74.8394H74.8399H74.8404H74.8409H74.8414H74.8419H74.8425H74.843H74.8436H74.8442H74.8447H74.8453H74.8459H74.8465H74.8472H74.8478H74.8484H74.8491H74.8497H74.8504H74.8511H74.8518H74.8525H74.8532H74.8539H74.8547H74.8554H74.8562H74.857H74.8577H74.8585H74.8593H74.8601H74.861H74.8618H74.8626H74.8635H74.8643H74.8652H74.8661H74.867H74.8679H74.8688H74.8697H74.8706H74.8716H74.8725H74.8735H74.8744H74.8754H74.8764H74.8774H74.8784H74.8794H74.8804H74.8815H74.8825H74.8835H74.8846H74.8857H74.8868H74.8878H74.8889H74.89H74.8912H74.8923H74.8934H74.8946H74.8957H74.8969H74.898H74.8992H74.9004H74.9016H74.9028H74.904H74.9052H74.9065H74.9077H74.9089H74.9102H74.9115H74.9127H74.914H74.9153H74.9166H74.9179H74.9192H74.9206H74.9219H74.9232H74.9246H74.9259H74.9273H74.9287H74.93H74.9314H74.9328H74.9342H74.9356H74.937H74.9385H74.9399H74.9414H74.9428H74.9443H74.9457H74.9472H74.9487H74.9502H74.9517H74.9532H74.9547H74.9562H74.9577H74.9592H74.9608H74.9623H74.9639H74.9654H74.967H74.9686H74.9702H74.9718H74.9734H74.975H74.9766H74.9782H74.9798H74.9814H74.9831H74.9847H74.9864H74.988H74.9897H74.9914H74.9931H74.9947H74.9964H74.9981H74.9998H75.0015H75.0033H75.005H75.0067H75.0085H75.0102H75.0119H75.0137H75.0155H75.0172H75.019H75.0208H75.0226H75.0244H75.0262H75.028H75.0298H75.0316H75.0334H75.0352H75.0371H75.0389H75.0408H75.0426H75.0445H75.0463H75.0482H75.0501H75.0519H75.0538H75.0557H75.0576H75.0595H75.0614H75.0633H75.0653H75.0672H75.0691H75.071H75.073H75.0749H75.0769H75.0788H75.0808H75.0827H75.0847H75.0867H75.0886H75.0906H75.0926H75.0946H75.0966H75.0986H75.1006H75.1026H75.1046H75.1067H75.1087H75.1107H75.1127H75.1148H75.1168H75.1189H75.1209H75.123H75.125H75.1271H75.1292H75.1312H75.1333H75.1354H75.1375H75.1396H75.1417H75.1438H75.1459H75.148H75.1501H75.1522H75.1543H75.1564H75.1585H75.1607H75.1628H75.1649H75.1671H75.1692H75.1714H75.1735H75.1757H75.1778H75.18H75.1821H75.1843H75.1865H75.1886H75.1908H75.193H75.1952H75.1974H75.1995H75.2017H75.2039H75.2061H75.2083H75.2105H75.2127H75.2149H75.2172H75.2194H75.2216H75.2238H75.226H75.2283H75.2305H75.2327H75.2349H75.2372H75.2394H75.2417H75.2439H75.2461H75.2484H75.2506H75.2529H75.2551H75.2574H75.2597H75.2619H75.2642H75.2665H75.2687H75.271H75.2733H75.2755H75.2778H75.2801H75.2824H75.2846H75.2869H75.2892H75.2915H75.2938H75.2961H75.2984H75.3007H75.303H75.3053H75.3076H75.3099H75.3122H75.3145H75.3168H75.3191H75.3214H75.3237H75.326H75.3283H75.3306H75.3329H75.3352H75.3375H75.3399H75.3422H75.3445H75.3468H75.3491H75.3514H75.3538H75.3561H75.3584H75.3607H75.363H75.3654H75.3677H75.37H75.3723H75.3747H75.377H75.3793H75.3817H75.384H75.3863H75.3886H75.391H75.3933H75.3956H75.398H75.4003H75.4026H75.4049H75.4073H75.4096H75.4119H75.4143H75.4166H75.4189H75.4212H75.4236H75.4259H75.4282H75.4306H75.4329H75.4352H75.4375H75.4399H75.4422H75.4445H75.4469H75.4492H75.4515H75.4538H75.4561H75.4585H75.4608H75.4631H75.4654H75.4678H75.4701H75.4724H75.4747H75.477H75.4793H75.4816H75.484H75.4863H75.4886H75.4909H75.4932H75.4955H75.4978H75.5001H75.5024H75.5047H75.507H75.5093H75.5116H75.5139H75.5162H75.5185H75.5208H75.5231H75.5254H75.5276H75.5299H75.5322H75.5345H75.5368H75.539H75.5413H75.5436H75.5459H75.5481H75.5504H75.5527H75.5549H75.5572H75.5594H75.5617H75.564H75.5662H75.5685H75.5707H75.573H75.5752H75.5774H75.5797H75.5819H75.5841H75.5864H75.5886H75.5908H75.593H75.5953H75.5975H75.5997H75.6019H75.6041H75.6063H75.6085H75.6107H75.6129H75.6151H75.6173H75.6195H75.6217H75.6238H75.626H75.6282H75.6304H75.6325H75.6347H75.6369H75.639H75.6412H75.6433H75.6455H75.6476H75.6498H75.6519H75.654H75.6562H75.6583H75.6604H75.6625H75.6646H75.6668H75.6689H75.671H75.6731H75.6752H75.6772H75.6793H75.6814H75.6835H75.6856H75.6876H75.6897H75.6918H75.6938H75.6959H75.6979H75.7H75.702H75.7041H75.7061H75.7081H75.7101H75.7122H75.7142H75.7162H75.7182C76.7154 7.97236 77.4936 7.78003 78.1263 7.21425C78.8477 6.63143 79.135 5.65264 79.135 4.73846C79.135 3.8025 78.8362 2.91008 78.1466 2.22007C77.7728 1.84606 77.2553 1.65769 76.8384 1.55977C76.4151 1.46032 76.0465 1.44303 75.9232 1.44303H75.922H75.9208H75.9196H75.9184H75.9172H75.916H75.9148H75.9136H75.9124H75.9113H75.9101H75.9089H75.9077H75.9065H75.9054H75.9042H75.903H75.9018H75.9007H75.8995H75.8983H75.8971H75.896H75.8948H75.8937H75.8925H75.8913H75.8902H75.889H75.8879H75.8867H75.8856H75.8844H75.8833H75.8821H75.881H75.8798H75.8787H75.8776H75.8764H75.8753H75.8742H75.873H75.8719H75.8708H75.8696H75.8685H75.8674H75.8663H75.8651H75.864H75.8629H75.8618H75.8607H75.8596H75.8585H75.8574H75.8562H75.8551H75.854H75.8529H75.8518H75.8507H75.8496H75.8486H75.8475H75.8464H75.8453H75.8442H75.8431H75.842H75.8409H75.8399H75.8388H75.8377H75.8366H75.8356H75.8345H75.8334H75.8324H75.8313H75.8302H75.8292H75.8281H75.827H75.826H75.8249H75.8239H75.8228H75.8218H75.8207H75.8197H75.8186H75.8176H75.8166H75.8155H75.8145H75.8135H75.8124H75.8114H75.8104H75.8093H75.8083H75.8073H75.8063H75.8053H75.8042H75.8032H75.8022H75.8012H75.8002H75.7992H75.7982H75.7972H75.7962H75.7952H75.7942H75.7932H75.7922H75.7912H75.7902H75.7892H75.7882H75.7872H75.7862H75.7853H75.7843H75.7833H75.7823H75.7814H75.7804H75.7794H75.7785H75.7775H75.7765H75.7756H75.7746H75.7737H75.7727H75.7717H75.7708H75.7698H75.7689H75.7679H75.767H75.7661H75.7651H75.7642H75.7633H75.7623H75.7614H75.7605H75.7595H75.7586H75.7577H75.7568H75.7558H75.7549H75.754H75.7531H75.7522H75.7513H75.7504H75.7495H75.7486H75.7477H75.7468H75.7459H75.745H75.7441H75.7432H75.7423H75.7414H75.7405H75.7397H75.7388H75.7379H75.737H75.7361H75.7353H75.7344H75.7335H75.7327H75.7318H75.731H75.7301H75.7292H75.7284H75.7275H75.7267H75.7258H75.725H75.7241H75.7233H75.7225H75.7216H75.7208H75.72H75.7191H75.7183H75.7175H75.7166H75.7158H75.715H75.7142H75.7134H75.7126H75.7117H75.7109H75.7101H75.7093H75.7085H75.7077H75.7069H75.7061H75.7053H75.7045H75.7038H75.703H75.7022H75.7014H75.7006H75.6999H75.6991H75.6983H75.6975H75.6968H75.696H75.6952H75.6945H75.6937H75.693H75.6922H75.6914H75.6907H75.6899H75.6892H75.6885H75.6877H75.687H75.6862H75.6855H75.6848H75.684H75.6833H75.6826H75.6819H75.6811H75.6804H75.6797H75.679H75.6783H75.6776H75.6769H75.6762H75.6755H75.6748H75.6741H75.6734H75.6727H75.672H75.6713H75.6706H75.6699H75.6693H75.6686H75.6679H75.6672H75.6666H75.6659H75.6652H75.6646H75.6639H75.6632H75.6626H75.6619H75.6613H75.6606H75.66H75.6593H75.6587H75.6581H75.6574H75.6568H75.6561H75.6555H75.6549H75.6543H75.6536H75.653H75.6524H75.6518H75.6512H75.6506H75.65H75.6493H75.6487H75.6481H75.6475H75.6469H75.6464H75.6458H75.6452H75.6446H75.644H75.6434H75.6428H75.6423H75.6417H75.6411H75.6406H75.64H75.6394H75.6389H75.6383H75.6378H75.6372H75.6367H75.6361H75.6356H75.635H75.6345H75.6339H75.6334H75.6329H75.6323H75.6318H75.6313H75.6308H75.6302H75.6297H75.6292H75.6287H75.6282H75.6277H75.6272H75.6267H75.6262H75.6257H75.6252H75.6247H75.6242H75.6237H75.6232H75.6228H75.6223H75.6218H75.6213H75.6209H75.6204H75.6199H75.6195H75.619H75.6185H75.6181H75.6176H75.6172H75.6167H75.6163H75.6159H75.6154H75.615H75.6145H75.6141H75.6137H75.6133H75.6128H75.6124H75.612H75.6116H75.6112H75.6108H75.6104H75.61H75.6096H75.6092H75.6088H75.6084H75.608H75.6076H75.6072H75.6068H75.6064H75.6061H75.6057H75.6053H75.6049H75.6046H75.6042H75.6039H75.6035H75.6031H75.6028H75.6024H75.6021H75.6018H75.6014H75.6011H75.6007H75.6004H75.6001H75.5998H75.5994H75.5991H75.5988H75.5985H75.5982H75.5978H75.5975H75.5972H75.5969H75.5966H75.5963H75.596H75.5958H75.5955H75.5952H75.5949H75.5946H75.5943H75.5941H75.5938H75.5935H75.5933H75.593H75.5927H75.5925H75.5922H75.592H75.5917H75.5915H75.5913H75.591H75.5908H75.5905H75.5903H75.5901H75.5899H75.5896H75.5894H75.5892H75.589H75.5888H75.5886H75.5884H75.5882H75.588H75.5878H75.5876H75.5874H75.5872H75.587H75.5868H75.5867H75.5865H75.5863H75.5861H75.586H75.5858H75.5857H75.5855H75.5853H75.5852H75.5851H75.5849H75.5848H75.5846H75.5845H75.5844H75.5842H75.5841H75.584H75.5839H75.5837H75.5836H75.5835H75.5834H75.5833H75.5832H75.5831H75.583H75.5829H75.5828H75.5827H75.5826H75.5826H75.5825H75.5824H75.5823H75.5823H75.5822H75.5821H75.5821H75.582H75.582H75.5819H75.5819H75.5818H75.5818H75.5817H75.5817H75.5817H75.5816H75.5816H75.5816H75.5816H75.5815H75.5815H75.5815H75.5815H75.5815H71.6179V1.72308H71.2763V1.78462V2.1262V7.63077ZM79.1366 1.32053L79.1365 1.32061L79.1433 1.32537C80.59 2.34494 80.8436 3.75358 80.8436 4.67693C80.8436 5.61247 80.5824 6.84645 79.5981 7.67745L79.5981 7.67744L79.5961 7.67917C78.2574 8.82722 76.9281 9.01226 74.8298 9.01226H71.6179H71.2763V9.35385V15.9661H69.636V0.341588H75.5815C76.5169 0.341588 78.065 0.525824 79.1366 1.32053Z" fill="#242424" stroke="#242424" stroke-width="0.683177"/>
<path d="M116.789 0.341588H118.429V15.9661H116.789V0.341588Z" fill="#242424" stroke="#242424" stroke-width="0.683177"/>
<path d="M124.102 7.63077V7.97236H124.443H127.655H127.655H127.655H127.655H127.655H127.655H127.655H127.655H127.655H127.656H127.656H127.656H127.656H127.656H127.656H127.657H127.657H127.657H127.657H127.657H127.658H127.658H127.658H127.658H127.659H127.659H127.659H127.66H127.66H127.66H127.661H127.661H127.662H127.662H127.662H127.663H127.663H127.664H127.664H127.665H127.665H127.666H127.666H127.667H127.667H127.668H127.668H127.669H127.669H127.67H127.67H127.671H127.672H127.672H127.673H127.674H127.674H127.675H127.676H127.676H127.677H127.678H127.678H127.679H127.68H127.681H127.681H127.682H127.683H127.684H127.684H127.685H127.686H127.687H127.688H127.689H127.689H127.69H127.691H127.692H127.693H127.694H127.695H127.696H127.697H127.698H127.699H127.7H127.701H127.702H127.703H127.704H127.705H127.706H127.707H127.708H127.709H127.71H127.711H127.712H127.713H127.714H127.715H127.716H127.717H127.719H127.72H127.721H127.722H127.723H127.724H127.726H127.727H127.728H127.729H127.73H127.732H127.733H127.734H127.735H127.737H127.738H127.739H127.74H127.742H127.743H127.744H127.746H127.747H127.748H127.75H127.751H127.752H127.754H127.755H127.757H127.758H127.759H127.761H127.762H127.764H127.765H127.767H127.768H127.769H127.771H127.772H127.774H127.775H127.777H127.778H127.78H127.781H127.783H127.784H127.786H127.788H127.789H127.791H127.792H127.794H127.795H127.797H127.799H127.8H127.802H127.803H127.805H127.807H127.808H127.81H127.812H127.813H127.815H127.817H127.818H127.82H127.822H127.823H127.825H127.827H127.828H127.83H127.832H127.834H127.835H127.837H127.839H127.841H127.842H127.844H127.846H127.848H127.85H127.851H127.853H127.855H127.857H127.859H127.86H127.862H127.864H127.866H127.868H127.87H127.872H127.873H127.875H127.877H127.879H127.881H127.883H127.885H127.887H127.889H127.89H127.892H127.894H127.896H127.898H127.9H127.902H127.904H127.906H127.908H127.91H127.912H127.914H127.916H127.918H127.92H127.922H127.924H127.926H127.928H127.93H127.932H127.934H127.936H127.938H127.94H127.942H127.944H127.946H127.948H127.95H127.952H127.954H127.956H127.958H127.961H127.963H127.965H127.967H127.969H127.971H127.973H127.975H127.977H127.979H127.982H127.984H127.986H127.988H127.99H127.992H127.994H127.997H127.999H128.001H128.003H128.005H128.007H128.009H128.012H128.014H128.016H128.018H128.02H128.023H128.025H128.027H128.029H128.031H128.033H128.036H128.038H128.04H128.042H128.045H128.047H128.049H128.051H128.053H128.056H128.058H128.06H128.062H128.065H128.067H128.069H128.071H128.074H128.076H128.078H128.08H128.083H128.085H128.087H128.089H128.092H128.094H128.096H128.098H128.101H128.103H128.105H128.108H128.11H128.112H128.114H128.117H128.119H128.121H128.124H128.126H128.128H128.13H128.133H128.135H128.137H128.14H128.142H128.144H128.147H128.149H128.151H128.153H128.156H128.158H128.16H128.163H128.165H128.167H128.17H128.172H128.174H128.177H128.179H128.181H128.184H128.186H128.188H128.191H128.193H128.195H128.198H128.2H128.202H128.204H128.207H128.209H128.211H128.214H128.216H128.218H128.221H128.223H128.225H128.228H128.23H128.232H128.235H128.237H128.239H128.242H128.244H128.246H128.249H128.251H128.253H128.256H128.258H128.26H128.263H128.265H128.267H128.27H128.272H128.274H128.277H128.279H128.281H128.284H128.286H128.288H128.291H128.293H128.295H128.298H128.3H128.302H128.305H128.307H128.309H128.311H128.314H128.316H128.318H128.321H128.323H128.325H128.328H128.33H128.332H128.334H128.337H128.339H128.341H128.344H128.346H128.348H128.351H128.353H128.355H128.357H128.36H128.362H128.364H128.366H128.369H128.371H128.373H128.376H128.378H128.38H128.382H128.385H128.387H128.389H128.391H128.394H128.396H128.398H128.4H128.403H128.405H128.407H128.409H128.412H128.414H128.416H128.418H128.42H128.423H128.425H128.427H128.429H128.431H128.434H128.436H128.438H128.44H128.442H128.445H128.447H128.449H128.451H128.453H128.456H128.458H128.46H128.462H128.464H128.466H128.468H128.471H128.473H128.475H128.477H128.479H128.481H128.483H128.486H128.488H128.49H128.492H128.494H128.496H128.498H128.5H128.502H128.505H128.507H128.509H128.511H128.513H128.515H128.517H128.519H128.521H128.523H128.525H128.527H128.529H128.531H128.533H128.535H128.537H128.539H128.541H128.543C129.541 7.97236 130.319 7.78003 130.951 7.21425C131.673 6.63143 131.96 5.65264 131.96 4.73846C131.96 3.8025 131.661 2.91008 130.972 2.22007C130.598 1.84606 130.08 1.65769 129.664 1.55977C129.24 1.46032 128.872 1.44303 128.748 1.44303H128.747H128.746H128.745H128.744H128.742H128.741H128.74H128.739H128.738H128.736H128.735H128.734H128.733H128.732H128.731H128.729H128.728H128.727H128.726H128.725H128.723H128.722H128.721H128.72H128.719H128.718H128.717H128.715H128.714H128.713H128.712H128.711H128.71H128.708H128.707H128.706H128.705H128.704H128.703H128.702H128.7H128.699H128.698H128.697H128.696H128.695H128.694H128.693H128.691H128.69H128.689H128.688H128.687H128.686H128.685H128.684H128.683H128.681H128.68H128.679H128.678H128.677H128.676H128.675H128.674H128.673H128.672H128.67H128.669H128.668H128.667H128.666H128.665H128.664H128.663H128.662H128.661H128.66H128.659H128.658H128.656H128.655H128.654H128.653H128.652H128.651H128.65H128.649H128.648H128.647H128.646H128.645H128.644H128.643H128.642H128.641H128.64H128.639H128.638H128.637H128.636H128.635H128.633H128.632H128.631H128.63H128.629H128.628H128.627H128.626H128.625H128.624H128.623H128.622H128.621H128.62H128.619H128.618H128.617H128.616H128.615H128.614H128.613H128.612H128.611H128.61H128.609H128.608H128.608H128.607H128.606H128.605H128.604H128.603H128.602H128.601H128.6H128.599H128.598H128.597H128.596H128.595H128.594H128.593H128.592H128.591H128.59H128.589H128.588H128.587H128.587H128.586H128.585H128.584H128.583H128.582H128.581H128.58H128.579H128.578H128.577H128.576H128.576H128.575H128.574H128.573H128.572H128.571H128.57H128.569H128.568H128.567H128.567H128.566H128.565H128.564H128.563H128.562H128.561H128.56H128.56H128.559H128.558H128.557H128.556H128.555H128.554H128.554H128.553H128.552H128.551H128.55H128.549H128.548H128.548H128.547H128.546H128.545H128.544H128.543H128.543H128.542H128.541H128.54H128.539H128.539H128.538H128.537H128.536H128.535H128.534H128.534H128.533H128.532H128.531H128.531H128.53H128.529H128.528H128.527H128.527H128.526H128.525H128.524H128.523H128.523H128.522H128.521H128.52H128.52H128.519H128.518H128.517H128.517H128.516H128.515H128.514H128.514H128.513H128.512H128.511H128.511H128.51H128.509H128.508H128.508H128.507H128.506H128.506H128.505H128.504H128.503H128.503H128.502H128.501H128.501H128.5H128.499H128.499H128.498H128.497H128.496H128.496H128.495H128.494H128.494H128.493H128.492H128.492H128.491H128.49H128.49H128.489H128.488H128.488H128.487H128.486H128.486H128.485H128.484H128.484H128.483H128.483H128.482H128.481H128.481H128.48H128.479H128.479H128.478H128.478H128.477H128.476H128.476H128.475H128.475H128.474H128.473H128.473H128.472H128.472H128.471H128.47H128.47H128.469H128.469H128.468H128.467H128.467H128.466H128.466H128.465H128.465H128.464H128.463H128.463H128.462H128.462H128.461H128.461H128.46H128.46H128.459H128.459H128.458H128.458H128.457H128.456H128.456H128.455H128.455H128.454H128.454H128.453H128.453H128.452H128.452H128.451H128.451H128.45H128.45H128.449H128.449H128.448H128.448H128.447H128.447H128.446H128.446H128.446H128.445H128.445H128.444H128.444H128.443H128.443H128.442H128.442H128.441H128.441H128.441H128.44H128.44H128.439H128.439H128.438H128.438H128.438H128.437H128.437H128.436H128.436H128.436H128.435H128.435H128.434H128.434H128.434H128.433H128.433H128.432H128.432H128.432H128.431H128.431H128.43H128.43H128.43H128.429H128.429H128.429H128.428H128.428H128.428H128.427H128.427H128.427H128.426H128.426H128.426H128.425H128.425H128.425H128.424H128.424H128.424H128.423H128.423H128.423H128.422H128.422H128.422H128.422H128.421H128.421H128.421H128.42H128.42H128.42H128.42H128.419H128.419H128.419H128.418H128.418H128.418H128.418H128.417H128.417H128.417H128.417H128.416H128.416H128.416H128.416H128.415H128.415H128.415H128.415H128.415H128.414H128.414H128.414H128.414H128.414H128.413H128.413H128.413H128.413H128.413H128.412H128.412H128.412H128.412H128.412H128.411H128.411H128.411H128.411H128.411H128.411H128.411H128.41H128.41H128.41H128.41H128.41H128.41H128.41H128.409H128.409H128.409H128.409H128.409H128.409H128.409H128.409H128.408H128.408H128.408H128.408H128.408H128.408H128.408H128.408H128.408H128.408H128.408H128.407H128.407H128.407H128.407H128.407H128.407H128.407H128.407H128.407H128.407H128.407H128.407H128.407H128.407H128.407H128.407H128.407H128.407H128.407H128.407H128.407H128.407H128.407H124.443V1.72308H124.102V1.78462V2.1262V7.63077ZM124.033 9.35385V15.9661H122.394L122.46 0.341588H128.338C129.274 0.341588 130.822 0.525824 131.893 1.32053L131.893 1.32061L131.9 1.32537C133.347 2.34494 133.6 3.75357 133.6 4.67693C133.6 5.61247 133.339 6.84645 132.355 7.67745L132.355 7.67744L132.353 7.67917C131.014 8.82722 129.685 9.01226 127.587 9.01226H124.375H124.033V9.35385Z" fill="#242424" stroke="#242424" stroke-width="0.683177"/>
<path d="M137.906 7.63077V7.97236H138.247H141.459H141.459H141.459H141.459H141.459H141.459H141.459H141.46H141.46H141.46H141.46H141.46H141.46H141.46H141.461H141.461H141.461H141.461H141.461H141.462H141.462H141.462H141.462H141.463H141.463H141.463H141.464H141.464H141.464H141.465H141.465H141.465H141.466H141.466H141.467H141.467H141.467H141.468H141.468H141.469H141.469H141.47H141.47H141.471H141.471H141.472H141.472H141.473H141.474H141.474H141.475H141.475H141.476H141.477H141.477H141.478H141.478H141.479H141.48H141.48H141.481H141.482H141.483H141.483H141.484H141.485H141.486H141.486H141.487H141.488H141.489H141.49H141.49H141.491H141.492H141.493H141.494H141.495H141.495H141.496H141.497H141.498H141.499H141.5H141.501H141.502H141.503H141.504H141.505H141.506H141.507H141.508H141.509H141.51H141.511H141.512H141.513H141.514H141.515H141.516H141.517H141.518H141.519H141.521H141.522H141.523H141.524H141.525H141.526H141.527H141.529H141.53H141.531H141.532H141.533H141.535H141.536H141.537H141.538H141.54H141.541H141.542H141.543H141.545H141.546H141.547H141.549H141.55H141.551H141.553H141.554H141.555H141.557H141.558H141.559H141.561H141.562H141.564H141.565H141.566H141.568H141.569H141.571H141.572H141.574H141.575H141.577H141.578H141.58H141.581H141.583H141.584H141.586H141.587H141.589H141.59H141.592H141.593H141.595H141.596H141.598H141.6H141.601H141.603H141.604H141.606H141.608H141.609H141.611H141.612H141.614H141.616H141.617H141.619H141.621H141.622H141.624H141.626H141.628H141.629H141.631H141.633H141.634H141.636H141.638H141.64H141.641H141.643H141.645H141.647H141.648H141.65H141.652H141.654H141.656H141.657H141.659H141.661H141.663H141.665H141.666H141.668H141.67H141.672H141.674H141.676H141.678H141.679H141.681H141.683H141.685H141.687H141.689H141.691H141.693H141.695H141.697H141.698H141.7H141.702H141.704H141.706H141.708H141.71H141.712H141.714H141.716H141.718H141.72H141.722H141.724H141.726H141.728H141.73H141.732H141.734H141.736H141.738H141.74H141.742H141.744H141.746H141.748H141.75H141.752H141.754H141.756H141.759H141.761H141.763H141.765H141.767H141.769H141.771H141.773H141.775H141.777H141.779H141.782H141.784H141.786H141.788H141.79H141.792H141.794H141.796H141.799H141.801H141.803H141.805H141.807H141.809H141.811H141.814H141.816H141.818H141.82H141.822H141.825H141.827H141.829H141.831H141.833H141.835H141.838H141.84H141.842H141.844H141.847H141.849H141.851H141.853H141.855H141.858H141.86H141.862H141.864H141.867H141.869H141.871H141.873H141.876H141.878H141.88H141.882H141.885H141.887H141.889H141.891H141.894H141.896H141.898H141.9H141.903H141.905H141.907H141.909H141.912H141.914H141.916H141.919H141.921H141.923H141.925H141.928H141.93H141.932H141.935H141.937H141.939H141.942H141.944H141.946H141.948H141.951H141.953H141.955H141.958H141.96H141.962H141.965H141.967H141.969H141.972H141.974H141.976H141.978H141.981H141.983H141.985H141.988H141.99H141.992H141.995H141.997H141.999H142.002H142.004H142.006H142.009H142.011H142.013H142.016H142.018H142.02H142.023H142.025H142.027H142.03H142.032H142.034H142.037H142.039H142.041H142.044H142.046H142.048H142.051H142.053H142.055H142.058H142.06H142.062H142.065H142.067H142.069H142.072H142.074H142.076H142.079H142.081H142.083H142.086H142.088H142.09H142.092H142.095H142.097H142.099H142.102H142.104H142.106H142.109H142.111H142.113H142.116H142.118H142.12H142.123H142.125H142.127H142.129H142.132H142.134H142.136H142.139H142.141H142.143H142.146H142.148H142.15H142.152H142.155H142.157H142.159H142.162H142.164H142.166H142.168H142.171H142.173H142.175H142.178H142.18H142.182H142.184H142.187H142.189H142.191H142.193H142.196H142.198H142.2H142.202H142.205H142.207H142.209H142.211H142.214H142.216H142.218H142.22H142.222H142.225H142.227H142.229H142.231H142.233H142.236H142.238H142.24H142.242H142.244H142.247H142.249H142.251H142.253H142.255H142.258H142.26H142.262H142.264H142.266H142.268H142.271H142.273H142.275H142.277H142.279H142.281H142.283H142.286H142.288H142.29H142.292H142.294H142.296H142.298H142.3H142.302H142.305H142.307H142.309H142.311H142.313H142.315H142.317H142.319H142.321H142.323H142.325H142.327H142.329H142.331H142.333H142.335H142.337H142.34H142.342H142.344H142.346H142.348C143.345 7.97236 144.123 7.78003 144.756 7.21425C145.477 6.63143 145.764 5.65264 145.764 4.73846C145.764 3.8025 145.466 2.91008 144.776 2.22007C144.402 1.84606 143.885 1.65769 143.468 1.55977C143.044 1.46032 142.676 1.44303 142.553 1.44303H142.551H142.55H142.549H142.548H142.547H142.545H142.544H142.543H142.542H142.541H142.539H142.538H142.537H142.536H142.535H142.534H142.532H142.531H142.53H142.529H142.528H142.527H142.525H142.524H142.523H142.522H142.521H142.52H142.518H142.517H142.516H142.515H142.514H142.513H142.512H142.51H142.509H142.508H142.507H142.506H142.505H142.504H142.502H142.501H142.5H142.499H142.498H142.497H142.496H142.495H142.493H142.492H142.491H142.49H142.489H142.488H142.487H142.486H142.485H142.483H142.482H142.481H142.48H142.479H142.478H142.477H142.476H142.475H142.474H142.472H142.471H142.47H142.469H142.468H142.467H142.466H142.465H142.464H142.463H142.462H142.461H142.46H142.459H142.457H142.456H142.455H142.454H142.453H142.452H142.451H142.45H142.449H142.448H142.447H142.446H142.445H142.444H142.443H142.442H142.441H142.44H142.439H142.438H142.437H142.436H142.435H142.434H142.433H142.432H142.431H142.43H142.429H142.428H142.427H142.426H142.425H142.424H142.423H142.422H142.421H142.42H142.419H142.418H142.417H142.416H142.415H142.414H142.413H142.412H142.411H142.41H142.409H142.408H142.407H142.406H142.405H142.404H142.403H142.402H142.401H142.4H142.399H142.398H142.397H142.396H142.395H142.395H142.394H142.393H142.392H142.391H142.39H142.389H142.388H142.387H142.386H142.385H142.384H142.383H142.382H142.382H142.381H142.38H142.379H142.378H142.377H142.376H142.375H142.374H142.373H142.373H142.372H142.371H142.37H142.369H142.368H142.367H142.366H142.366H142.365H142.364H142.363H142.362H142.361H142.36H142.359H142.359H142.358H142.357H142.356H142.355H142.354H142.354H142.353H142.352H142.351H142.35H142.349H142.349H142.348H142.347H142.346H142.345H142.344H142.344H142.343H142.342H142.341H142.34H142.34H142.339H142.338H142.337H142.336H142.336H142.335H142.334H142.333H142.332H142.332H142.331H142.33H142.329H142.328H142.328H142.327H142.326H142.325H142.325H142.324H142.323H142.322H142.322H142.321H142.32H142.319H142.319H142.318H142.317H142.316H142.316H142.315H142.314H142.313H142.313H142.312H142.311H142.311H142.31H142.309H142.308H142.308H142.307H142.306H142.306H142.305H142.304H142.303H142.303H142.302H142.301H142.301H142.3H142.299H142.299H142.298H142.297H142.297H142.296H142.295H142.295H142.294H142.293H142.293H142.292H142.291H142.291H142.29H142.289H142.289H142.288H142.287H142.287H142.286H142.286H142.285H142.284H142.284H142.283H142.282H142.282H142.281H142.281H142.28H142.279H142.279H142.278H142.278H142.277H142.276H142.276H142.275H142.275H142.274H142.273H142.273H142.272H142.272H142.271H142.271H142.27H142.269H142.269H142.268H142.268H142.267H142.267H142.266H142.265H142.265H142.264H142.264H142.263H142.263H142.262H142.262H142.261H142.261H142.26H142.26H142.259H142.259H142.258H142.258H142.257H142.257H142.256H142.256H142.255H142.255H142.254H142.254H142.253H142.253H142.252H142.252H142.251H142.251H142.25H142.25H142.249H142.249H142.248H142.248H142.247H142.247H142.247H142.246H142.246H142.245H142.245H142.244H142.244H142.243H142.243H142.243H142.242H142.242H142.241H142.241H142.241H142.24H142.24H142.239H142.239H142.239H142.238H142.238H142.237H142.237H142.237H142.236H142.236H142.235H142.235H142.235H142.234H142.234H142.234H142.233H142.233H142.233H142.232H142.232H142.231H142.231H142.231H142.23H142.23H142.23H142.229H142.229H142.229H142.228H142.228H142.228H142.228H142.227H142.227H142.227H142.226H142.226H142.226H142.225H142.225H142.225H142.225H142.224H142.224H142.224H142.223H142.223H142.223H142.223H142.222H142.222H142.222H142.222H142.221H142.221H142.221H142.221H142.22H142.22H142.22H142.22H142.219H142.219H142.219H142.219H142.219H142.218H142.218H142.218H142.218H142.218H142.217H142.217H142.217H142.217H142.217H142.216H142.216H142.216H142.216H142.216H142.216H142.215H142.215H142.215H142.215H142.215H142.215H142.214H142.214H142.214H142.214H142.214H142.214H142.214H142.213H142.213H142.213H142.213H142.213H142.213H142.213H142.213H142.213H142.212H142.212H142.212H142.212H142.212H142.212H142.212H142.212H142.212H142.212H142.212H142.212H142.212H142.211H142.211H142.211H142.211H142.211H142.211H142.211H142.211H142.211H142.211H142.211H142.211H142.211H142.211H142.211H142.211H142.211H142.211H142.211H138.247V1.72308H137.906V1.78462V2.1262V7.63077ZM137.837 9.35385V15.9661H136.198L136.264 0.341588H142.143C143.078 0.341588 144.626 0.525824 145.698 1.32053L145.698 1.32061L145.704 1.32537C147.151 2.34494 147.405 3.75357 147.405 4.67693C147.405 5.61247 147.143 6.84645 146.159 7.67745L146.159 7.67744L146.157 7.67917C144.818 8.82722 143.489 9.01226 141.391 9.01226H138.179H137.837V9.35385Z" fill="#242424" stroke="#242424" stroke-width="0.683177"/>
<path d="M152.052 7.2339H158.065V8.39688H152.052H151.71V8.73846V14.5231V14.8647H152.052H158.557L159.232 15.9661H150.07V0.341588H159.417L158.7 1.44303H152.052H151.71V1.78462V6.89231V7.2339H152.052Z" fill="#242424" stroke="#242424" stroke-width="0.683177"/>
<path d="M61.2936 27.439C61.1458 27.2519 60.9252 27.0036 60.6309 26.7551C60.0419 26.2579 59.1465 25.7515 57.9504 25.7515C55.5366 25.7515 53.7135 27.7298 53.7135 30.6469C53.7135 33.4719 55.7019 35.2347 57.882 35.2347C59.7216 35.2347 60.9648 34.1152 61.0489 34.0394L61.0491 34.0392L61.1621 33.9374V33.7854V31.57V31.2284H60.8206H57.5402V30.7423H61.9141V34.0631C61.4746 34.4509 60.9865 34.8294 60.353 35.1213C59.6669 35.4374 58.7936 35.6592 57.6087 35.6592C55.0518 35.6592 52.6883 33.708 52.6883 30.5854C52.6883 27.6252 54.869 25.2654 57.9504 25.2654C60.0851 25.2654 61.2786 26.3196 61.8464 26.9723L61.2936 27.439Z" fill="#242424" stroke="#242424" stroke-width="0.683177"/>
<path d="M65.8091 29.9413H69.7044V30.4889H65.8091H65.4675V30.8305V34.5844V34.9259H65.8091H69.9911L70.3255 35.4735H64.6473V25.3875H70.4622L70.1278 25.9351H65.8091H65.4675V26.2767V29.5997V29.9413H65.8091Z" fill="#242424" stroke="#242424" stroke-width="0.683177"/>
<path d="M73.3948 27.0151V35.4735H72.6429V25.3875H74.0236L78.9123 33.3477L79.545 34.3779V33.169V25.3875H80.2969V35.4735H79.3262L74.0275 26.8365L73.3948 25.8051V27.0151Z" fill="#242424" stroke="#242424" stroke-width="0.683177"/>
<path d="M101.55 29.9413H105.377V30.4889H101.55H101.208V30.8305V34.5844V34.9259H101.55H105.732L106.066 35.4735H100.388V25.3875H106.163L105.859 25.9351H101.55H101.208V26.2767V29.5997V29.9413H101.55Z" fill="#242424" stroke="#242424" stroke-width="0.683177"/>
</svg>
